<?xml version="1.0" encoding="UTF-8" standalone="no"?>
<!DOCTYPE svg PUBLIC "-//W3C//DTD SVG 1.1//EN"
 "http://www.w3.org/Graphics/SVG/1.1/DTD/svg11.dtd">
<!-- Generated by graphviz version 14.1.2 (20260124.0452)
 -->
<!-- Title: Architecture Pages: 1 -->
<svg width="733pt" height="600pt"
 viewBox="0.00 0.00 733.00 600.00" xmlns="http://www.w3.org/2000/svg" xmlns:xlink="http://www.w3.org/1999/xlink">
<g id="graph0" class="graph" transform="scale(1 1) rotate(0) translate(4 596)">
<title>Architecture</title>
<g id="clust1" class="cluster">
<title>cluster_web</title>
<polygon fill="none" stroke="#9e9e9e" stroke-dasharray="5,2" points="149.67,-268 149.67,-584 529.63,-584 529.63,-268 149.67,-268"/>
<text xml:space="preserve" text-anchor="middle" x="339.65" y="-569.55" font-family="Helvetica,sans-Serif" font-size="11.00" fill="#bdbdbd">Cloud Run · apps/web (Next.js)</text>
</g>
<g id="clust2" class="cluster">
<title>cluster_api</title>
<polygon fill="none" stroke="#9e9e9e" stroke-dasharray="5,2" points="421.34,-8 421.34,-155 716.93,-155 716.93,-8 421.34,-8"/>
<text xml:space="preserve" text-anchor="middle" x="569.13" y="-140.55" font-family="Helvetica,sans-Serif" font-size="11.00" fill="#bdbdbd">Cloud Run · apps/api (FastAPI)</text>
</g>
<!-- user -->
<g id="node1" class="node">
<title>user</title>
<path fill="#1f3864" stroke="#1f3864" d="M72.42,-434C72.42,-434 12,-434 12,-434 6,-434 0,-428 0,-422 0,-422 0,-410 0,-410 0,-404 6,-398 12,-398 12,-398 72.42,-398 72.42,-398 78.42,-398 84.42,-404 84.42,-410 84.42,-410 84.42,-422 84.42,-422 84.42,-428 78.42,-434 72.42,-434"/>
<text xml:space="preserve" text-anchor="middle" x="42.21" y="-412.12" font-family="Helvetica,sans-Serif" font-size="10.00" fill="white">User browser</text>
</g>
<!-- auth -->
<g id="node5" class="node">
<title>auth</title>
<path fill="#1f3864" stroke="#1f3864" d="M273.97,-556.45C273.97,-556.45 198.55,-556.45 198.55,-556.45 192.55,-556.45 186.55,-550.45 186.55,-544.45 186.55,-544.45 186.55,-531.55 186.55,-531.55 186.55,-525.55 192.55,-519.55 198.55,-519.55 198.55,-519.55 273.97,-519.55 273.97,-519.55 279.97,-519.55 285.97,-525.55 285.97,-531.55 285.97,-531.55 285.97,-544.45 285.97,-544.45 285.97,-550.45 279.97,-556.45 273.97,-556.45"/>
<text xml:space="preserve" text-anchor="middle" x="236.26" y="-539.75" font-family="Helvetica,sans-Serif" font-size="10.00" fill="white">Auth.js</text>
<text xml:space="preserve" text-anchor="middle" x="236.26" y="-528.5" font-family="Helvetica,sans-Serif" font-size="10.00" fill="white">Credentials/JWT</text>
</g>
<!-- user&#45;&gt;auth -->
<g id="edge1" class="edge">
<title>user&#45;&gt;auth</title>
<path fill="none" stroke="#9e9e9e" d="M60.06,-434.21C79.82,-454.63 114.37,-487.56 149.67,-508 158.59,-513.17 168.55,-517.65 178.43,-521.47"/>
<polygon fill="#9e9e9e" stroke="#9e9e9e" points="177.48,-523.73 184.9,-523.86 179.18,-519.14 177.48,-523.73"/>
<text xml:space="preserve" text-anchor="middle" x="121.05" y="-499.01" font-family="Helvetica,sans-Serif" font-size="9.00" fill="#9e9e9e">HTTPS</text>
</g>
<!-- parse -->
<g id="node6" class="node">
<title>parse</title>
<path fill="#1f3864" stroke="#1f3864" d="M273.59,-434C273.59,-434 198.92,-434 198.92,-434 192.92,-434 186.92,-428 186.92,-422 186.92,-422 186.92,-410 186.92,-410 186.92,-404 192.92,-398 198.92,-398 198.92,-398 273.59,-398 273.59,-398 279.59,-398 285.59,-404 285.59,-410 285.59,-410 285.59,-422 285.59,-422 285.59,-428 279.59,-434 273.59,-434"/>
<text xml:space="preserve" text-anchor="middle" x="236.26" y="-412.12" font-family="Helvetica,sans-Serif" font-size="10.00" fill="white">POST /api/parse</text>
</g>
<!-- user&#45;&gt;parse -->
<g id="edge2" class="edge">
<title>user&#45;&gt;parse</title>
<path fill="none" stroke="#9e9e9e" d="M84.88,-416C112.21,-416 148.29,-416 178.26,-416"/>
<polygon fill="#9e9e9e" stroke="#9e9e9e" points="178.03,-418.45 185.03,-416 178.03,-413.55 178.03,-418.45"/>
<text xml:space="preserve" text-anchor="middle" x="121.05" y="-417.2" font-family="Helvetica,sans-Serif" font-size="9.00" fill="#9e9e9e">HTTPS</text>
</g>
<!-- readiness -->
<g id="node7" class="node">
<title>readiness</title>
<path fill="#1f3864" stroke="#1f3864" d="M302.84,-373C302.84,-373 169.67,-373 169.67,-373 163.67,-373 157.67,-367 157.67,-361 157.67,-361 157.67,-349 157.67,-349 157.67,-343 163.67,-337 169.67,-337 169.67,-337 302.84,-337 302.84,-337 308.84,-337 314.84,-343 314.84,-349 314.84,-349 314.84,-361 314.84,-361 314.84,-367 308.84,-373 302.84,-373"/>
<text xml:space="preserve" text-anchor="middle" x="236.26" y="-351.12" font-family="Helvetica,sans-Serif" font-size="10.00" fill="white">POST /api/estimate/readiness</text>
</g>
<!-- user&#45;&gt;readiness -->
<g id="edge3" class="edge">
<title>user&#45;&gt;readiness</title>
<path fill="none" stroke="#9e9e9e" d="M84.88,-402.76C109.59,-394.92 141.45,-384.8 169.48,-375.89"/>
<polygon fill="#9e9e9e" stroke="#9e9e9e" points="169.9,-378.33 175.83,-373.87 168.42,-373.66 169.9,-378.33"/>
<text xml:space="preserve" text-anchor="middle" x="121.05" y="-395.73" font-family="Helvetica,sans-Serif" font-size="9.00" fill="#9e9e9e">HTTPS</text>
</g>
<!-- predict_bff -->
<g id="node8" class="node">
<title>predict_bff</title>
<path fill="#1f3864" stroke="#1f3864" d="M290.09,-312C290.09,-312 182.42,-312 182.42,-312 176.42,-312 170.42,-306 170.42,-300 170.42,-300 170.42,-288 170.42,-288 170.42,-282 176.42,-276 182.42,-276 182.42,-276 290.09,-276 290.09,-276 296.09,-276 302.09,-282 302.09,-288 302.09,-288 302.09,-300 302.09,-300 302.09,-306 296.09,-312 290.09,-312"/>
<text xml:space="preserve" text-anchor="middle" x="236.26" y="-290.12" font-family="Helvetica,sans-Serif" font-size="10.00" fill="white">POST /api/predict (BFF)</text>
</g>
<!-- user&#45;&gt;predict_bff -->
<g id="edge4" class="edge">
<title>user&#45;&gt;predict_bff</title>
<path fill="none" stroke="#9e9e9e" d="M60.5,-397.7C80.38,-377.55 114.79,-345.31 149.67,-325 155.46,-321.63 161.68,-318.52 168.03,-315.69"/>
<polygon fill="#9e9e9e" stroke="#9e9e9e" points="168.66,-318.08 174.13,-313.08 166.73,-313.58 168.66,-318.08"/>
<text xml:space="preserve" text-anchor="middle" x="121.05" y="-354.84" font-family="Helvetica,sans-Serif" font-size="9.00" fill="#9e9e9e">HTTPS</text>
</g>
<!-- history -->
<g id="node9" class="node">
<title>history</title>
<path fill="#1f3864" stroke="#1f3864" d="M267.97,-495C267.97,-495 204.55,-495 204.55,-495 198.55,-495 192.55,-489 192.55,-483 192.55,-483 192.55,-471 192.55,-471 192.55,-465 198.55,-459 204.55,-459 204.55,-459 267.97,-459 267.97,-459 273.97,-459 279.97,-465 279.97,-471 279.97,-471 279.97,-483 279.97,-483 279.97,-489 273.97,-495 267.97,-495"/>
<text xml:space="preserve" text-anchor="middle" x="236.26" y="-473.12" font-family="Helvetica,sans-Serif" font-size="10.00" fill="white">/history pages</text>
</g>
<!-- user&#45;&gt;history -->
<g id="edge5" class="edge">
<title>user&#45;&gt;history</title>
<path fill="none" stroke="#9e9e9e" d="M84.88,-429.24C114.05,-438.5 153.19,-450.93 184.22,-460.79"/>
<polygon fill="#9e9e9e" stroke="#9e9e9e" points="183.48,-463.13 190.89,-462.91 184.96,-458.45 183.48,-463.13"/>
<text xml:space="preserve" text-anchor="middle" x="121.05" y="-445.87" font-family="Helvetica,sans-Serif" font-size="9.00" fill="#9e9e9e">HTTPS</text>
</g>
<!-- openai -->
<g id="node2" class="node">
<title>openai</title>
<path fill="#1f3864" stroke="#1f3864" d="M497.64,-260C497.64,-260 462.72,-260 462.72,-260 456.72,-260 450.72,-254 450.72,-248 450.72,-248 450.72,-236 450.72,-236 450.72,-230 456.72,-224 462.72,-224 462.72,-224 497.64,-224 497.64,-224 503.64,-224 509.64,-230 509.64,-236 509.64,-236 509.64,-248 509.64,-248 509.64,-254 503.64,-260 497.64,-260"/>
<text xml:space="preserve" text-anchor="middle" x="480.18" y="-238.12" font-family="Helvetica,sans-Serif" font-size="10.00" fill="white">OpenAI</text>
</g>
<!-- iam -->
<g id="node3" class="node">
<title>iam</title>
<path fill="#1f3864" stroke="#1f3864" d="M507.01,-199C507.01,-199 453.34,-199 453.34,-199 447.34,-199 441.34,-193 441.34,-187 441.34,-187 441.34,-175 441.34,-175 441.34,-169 447.34,-163 453.34,-163 453.34,-163 507.01,-163 507.01,-163 513.01,-163 519.01,-169 519.01,-175 519.01,-175 519.01,-187 519.01,-187 519.01,-193 513.01,-199 507.01,-199"/>
<text xml:space="preserve" text-anchor="middle" x="480.18" y="-177.12" font-family="Helvetica,sans-Serif" font-size="10.00" fill="white">Google IAM</text>
</g>
<!-- neon -->
<g id="node4" class="node">
<title>neon</title>
<path fill="#1f3864" stroke="#1f3864" d="M696.56,-440.76C696.56,-443.3 676.12,-445.37 650.97,-445.37 625.82,-445.37 605.38,-443.3 605.38,-440.76 605.38,-440.76 605.38,-399.24 605.38,-399.24 605.38,-396.7 625.82,-394.63 650.97,-394.63 676.12,-394.63 696.56,-396.7 696.56,-399.24 696.56,-399.24 696.56,-440.76 696.56,-440.76"/>
<path fill="none" stroke="#1f3864" d="M696.56,-440.76C696.56,-438.21 676.12,-436.14 650.97,-436.14 625.82,-436.14 605.38,-438.21 605.38,-440.76"/>
<text xml:space="preserve" text-anchor="middle" x="650.97" y="-421.75" font-family="Helvetica,sans-Serif" font-size="10.00" fill="white">Neon Postgres</text>
<text xml:space="preserve" text-anchor="middle" x="650.97" y="-410.5" font-family="Helvetica,sans-Serif" font-size="10.00" fill="white">predictions</text>
</g>
<!-- parse&#45;&gt;openai -->
<g id="edge6" class="edge">
<title>parse&#45;&gt;openai</title>
<path fill="none" stroke="#9e9e9e" d="M285.79,-404.5C296.42,-400.13 306.86,-394.15 314.84,-386 334.93,-365.48 317.01,-346.02 336.84,-325.25 360.27,-300.72 383.12,-319.76 407.34,-296 418.42,-285.13 410.1,-274.71 421.34,-264 427.35,-258.28 435,-254 442.75,-250.83"/>
<polygon fill="#9e9e9e" stroke="#9e9e9e" points="443.32,-253.23 449.06,-248.52 441.64,-248.63 443.32,-253.23"/>
<text xml:space="preserve" text-anchor="middle" x="372.09" y="-326.45" font-family="Helvetica,sans-Serif" font-size="9.00" fill="#9e9e9e">structured output</text>
</g>
<!-- readiness&#45;&gt;openai -->
<g id="edge7" class="edge">
<title>readiness&#45;&gt;openai</title>
<path fill="none" stroke="#9e9e9e" stroke-dasharray="5,2" d="M297.77,-336.64C303.91,-333.34 309.75,-329.49 314.84,-325 330.28,-311.39 320.86,-297.23 336.84,-284.25 366.93,-259.81 410.77,-249.51 441.84,-245.16"/>
<polygon fill="#9e9e9e" stroke="#9e9e9e" points="442.1,-247.6 448.74,-244.28 441.48,-242.74 442.1,-247.6"/>
<text xml:space="preserve" text-anchor="middle" x="372.09" y="-285.45" font-family="Helvetica,sans-Serif" font-size="9.00" fill="#9e9e9e">optional rewrite</text>
</g>
<!-- predict_bff&#45;&gt;iam -->
<g id="edge8" class="edge">
<title>predict_bff&#45;&gt;iam</title>
<path fill="none" stroke="#9e9e9e" d="M266.24,-275.59C285.77,-263.58 312.34,-248.02 336.84,-236.25 368.29,-221.14 405.03,-206.96 433.3,-196.75"/>
<polygon fill="#9e9e9e" stroke="#9e9e9e" points="433.85,-199.16 439.61,-194.49 432.2,-194.54 433.85,-199.16"/>
<text xml:space="preserve" text-anchor="middle" x="372.09" y="-237.45" font-family="Helvetica,sans-Serif" font-size="9.00" fill="#9e9e9e">mint ID token</text>
</g>
<!-- drizzle -->
<g id="node10" class="node">
<title>drizzle</title>
<path fill="#1f3864" stroke="#1f3864" d="M509.64,-438C509.64,-438 450.72,-438 450.72,-438 444.72,-438 438.72,-432 438.72,-426 438.72,-426 438.72,-414 438.72,-414 438.72,-408 444.72,-402 450.72,-402 450.72,-402 509.64,-402 509.64,-402 515.64,-402 521.64,-408 521.64,-414 521.64,-414 521.64,-426 521.64,-426 521.64,-432 515.64,-438 509.64,-438"/>
<text xml:space="preserve" text-anchor="middle" x="480.18" y="-416.12" font-family="Helvetica,sans-Serif" font-size="10.00" fill="white">Drizzle ORM</text>
</g>
<!-- predict_bff&#45;&gt;drizzle -->
<g id="edge10" class="edge">
<title>predict_bff&#45;&gt;drizzle</title>
<path fill="none" stroke="#9e9e9e" d="M288.59,-312.41C297.52,-316.2 306.59,-320.44 314.84,-325 325.42,-330.84 326.65,-334.5 336.84,-341 369.1,-361.58 407.06,-382.49 435.65,-397.62"/>
<polygon fill="#9e9e9e" stroke="#9e9e9e" points="434.41,-399.74 441.75,-400.83 436.69,-395.4 434.41,-399.74"/>
<text xml:space="preserve" text-anchor="middle" x="372.09" y="-382.75" font-family="Helvetica,sans-Serif" font-size="9.00" fill="#9e9e9e">idempotent insert</text>
</g>
<!-- api_predict -->
<g id="node11" class="node">
<title>api_predict</title>
<path fill="#1f3864" stroke="#1f3864" d="M519.01,-127C519.01,-127 441.34,-127 441.34,-127 435.34,-127 429.34,-121 429.34,-115 429.34,-115 429.34,-103 429.34,-103 429.34,-97 435.34,-91 441.34,-91 441.34,-91 519.01,-91 519.01,-91 525.01,-91 531.01,-97 531.01,-103 531.01,-103 531.01,-115 531.01,-115 531.01,-121 525.01,-127 519.01,-127"/>
<text xml:space="preserve" text-anchor="middle" x="480.18" y="-105.12" font-family="Helvetica,sans-Serif" font-size="10.00" fill="white">POST /v1/predict</text>
</g>
<!-- predict_bff&#45;&gt;api_predict -->
<g id="edge9" class="edge">
<title>predict_bff&#45;&gt;api_predict</title>
<path fill="none" stroke="#9e9e9e" d="M252.15,-275.8C270.55,-254.01 303.54,-217.23 336.84,-191.25 366.9,-167.8 404.33,-146.43 433.27,-131.36"/>
<polygon fill="#9e9e9e" stroke="#9e9e9e" points="434.37,-133.55 439.47,-128.16 432.12,-129.19 434.37,-133.55"/>
<text xml:space="preserve" text-anchor="middle" x="372.09" y="-192.45" font-family="Helvetica,sans-Serif" font-size="9.00" fill="#9e9e9e">Bearer ID token</text>
</g>
<!-- history&#45;&gt;drizzle -->
<g id="edge11" class="edge">
<title>history&#45;&gt;drizzle</title>
<path fill="none" stroke="#9e9e9e" d="M280.23,-466.88C322.19,-456.99 385.99,-441.96 429.97,-431.59"/>
<polygon fill="#9e9e9e" stroke="#9e9e9e" points="430.49,-433.99 436.74,-430 429.37,-429.22 430.49,-433.99"/>
<text xml:space="preserve" text-anchor="middle" x="372.09" y="-453.11" font-family="Helvetica,sans-Serif" font-size="9.00" fill="#9e9e9e">read by user_id</text>
</g>
<!-- drizzle&#45;&gt;neon -->
<g id="edge12" class="edge">
<title>drizzle&#45;&gt;neon</title>
<path fill="none" stroke="#9e9e9e" d="M522.04,-420C544.47,-420 572.55,-420 596.68,-420"/>
<polygon fill="#9e9e9e" stroke="#9e9e9e" points="596.52,-422.45 603.52,-420 596.52,-417.55 596.52,-422.45"/>
<text xml:space="preserve" text-anchor="middle" x="562.01" y="-421.2" font-family="Helvetica,sans-Serif" font-size="9.00" fill="#9e9e9e">SQL</text>
</g>
<!-- shap -->
<g id="node12" class="node">
<title>shap</title>
<path fill="#1f3864" stroke="#1f3864" d="M696.93,-127C696.93,-127 605.01,-127 605.01,-127 599.01,-127 593.01,-121 593.01,-115 593.01,-115 593.01,-103 593.01,-103 593.01,-97 599.01,-91 605.01,-91 605.01,-91 696.93,-91 696.93,-91 702.93,-91 708.93,-97 708.93,-103 708.93,-103 708.93,-115 708.93,-115 708.93,-121 702.93,-127 696.93,-127"/>
<text xml:space="preserve" text-anchor="middle" x="650.97" y="-105.12" font-family="Helvetica,sans-Serif" font-size="10.00" fill="white">SHAP TreeExplainer</text>
</g>
<!-- api_predict&#45;&gt;shap -->
<g id="edge13" class="edge">
<title>api_predict&#45;&gt;shap</title>
<path fill="none" stroke="#9e9e9e" d="M531.36,-109C547.9,-109 566.54,-109 584.07,-109"/>
<polygon fill="#9e9e9e" stroke="#9e9e9e" points="584.05,-111.45 591.05,-109 584.05,-106.55 584.05,-111.45"/>
</g>
<!-- pipeline -->
<g id="node13" class="node">
<title>pipeline</title>
<path fill="#1f3864" stroke="#1f3864" d="M693.18,-61.76C693.18,-64.3 674.26,-66.37 650.97,-66.37 627.68,-66.37 608.76,-64.3 608.76,-61.76 608.76,-61.76 608.76,-20.24 608.76,-20.24 608.76,-17.7 627.68,-15.63 650.97,-15.63 674.26,-15.63 693.18,-17.7 693.18,-20.24 693.18,-20.24 693.18,-61.76 693.18,-61.76"/>
<path fill="none" stroke="#1f3864" d="M693.18,-61.76C693.18,-59.21 674.26,-57.14 650.97,-57.14 627.68,-57.14 608.76,-59.21 608.76,-61.76"/>
<text xml:space="preserve" text-anchor="middle" x="650.97" y="-42.75" font-family="Helvetica,sans-Serif" font-size="10.00" fill="white">XGBoost</text>
<text xml:space="preserve" text-anchor="middle" x="650.97" y="-31.5" font-family="Helvetica,sans-Serif" font-size="10.00" fill="white">pipeline.joblib</text>
</g>
<!-- api_predict&#45;&gt;pipeline -->
<g id="edge14" class="edge">
<title>api_predict&#45;&gt;pipeline</title>
<path fill="none" stroke="#9e9e9e" d="M526.85,-90.6C549.66,-81.41 577.28,-70.28 600.58,-60.9"/>
<polygon fill="#9e9e9e" stroke="#9e9e9e" points="601.32,-63.24 606.9,-58.35 599.49,-58.69 601.32,-63.24"/>
</g>
</g>
</svg>
