<?xml version="1.0" encoding="UTF-8" standalone="no"?>
<!DOCTYPE svg PUBLIC "-//W3C//DTD SVG 1.1//EN"
 "http://www.w3.org/Graphics/SVG/1.1/DTD/svg11.dtd">
<!-- Generated by graphviz version 14.1.2 (20260124.0452)
 -->
<!-- Title: PredictSequence Pages: 1 -->
<svg width="397pt" height="963pt"
 viewBox="0.00 0.00 397.00 963.00" xmlns="http://www.w3.org/2000/svg" xmlns:xlink="http://www.w3.org/1999/xlink">
<g id="graph0" class="graph" transform="scale(1 1) rotate(0) translate(4 958.59)">
<title>PredictSequence</title>
<!-- s0 -->
<g id="node1" class="node">
<title>s0</title>
<path fill="#1f3864" stroke="#1f3864" d="M187.55,-954.59C187.55,-954.59 73.87,-954.59 73.87,-954.59 67.88,-954.59 61.88,-948.59 61.88,-942.59 61.88,-942.59 61.88,-930.59 61.88,-930.59 61.88,-924.59 67.88,-918.59 73.88,-918.59 73.88,-918.59 187.55,-918.59 187.55,-918.59 193.55,-918.59 199.55,-924.59 199.55,-930.59 199.55,-930.59 199.55,-942.59 199.55,-942.59 199.55,-948.59 193.55,-954.59 187.55,-954.59"/>
<text xml:space="preserve" text-anchor="middle" x="130.71" y="-938.34" font-family="Helvetica,sans-Serif" font-size="10.00" fill="white">User describes the house</text>
<text xml:space="preserve" text-anchor="middle" x="130.71" y="-927.09" font-family="Helvetica,sans-Serif" font-size="10.00" fill="white">(free text)</text>
</g>
<!-- s1 -->
<g id="node2" class="node">
<title>s1</title>
<path fill="#1f3864" stroke="#1f3864" d="M210.05,-885.59C210.05,-885.59 51.37,-885.59 51.37,-885.59 45.38,-885.59 39.38,-879.59 39.38,-873.59 39.38,-873.59 39.38,-861.59 39.38,-861.59 39.38,-855.59 45.38,-849.59 51.38,-849.59 51.38,-849.59 210.05,-849.59 210.05,-849.59 216.05,-849.59 222.05,-855.59 222.05,-861.59 222.05,-861.59 222.05,-873.59 222.05,-873.59 222.05,-879.59 216.05,-885.59 210.05,-885.59"/>
<text xml:space="preserve" text-anchor="middle" x="130.71" y="-870.09" font-family="Helvetica,sans-Serif" font-size="10.00" fill="white">POST /api/parse</text>
<text xml:space="preserve" text-anchor="middle" x="130.71" y="-858.84" font-family="Helvetica,sans-Serif" font-size="10.00" fill="white">Next.js → OpenAI structured output</text>
</g>
<!-- s0&#45;&gt;s1 -->
<g id="edge1" class="edge">
<title>s0&#45;&gt;s1</title>
<path fill="none" stroke="#9e9e9e" d="M130.71,-918.34C130.71,-911.05 130.71,-902.4 130.71,-894.38"/>
<polygon fill="#9e9e9e" stroke="#9e9e9e" points="133.16,-894.53 130.71,-887.53 128.26,-894.53 133.16,-894.53"/>
</g>
<!-- s2 -->
<g id="node3" class="node">
<title>s2</title>
<path fill="#1f3864" stroke="#1f3864" d="M223.17,-816.59C223.17,-816.59 38.25,-816.59 38.25,-816.59 32.25,-816.59 26.25,-810.59 26.25,-804.59 26.25,-804.59 26.25,-792.59 26.25,-792.59 26.25,-786.59 32.25,-780.59 38.25,-780.59 38.25,-780.59 223.17,-780.59 223.17,-780.59 229.17,-780.59 235.17,-786.59 235.17,-792.59 235.17,-792.59 235.17,-804.59 235.17,-804.59 235.17,-810.59 229.17,-816.59 223.17,-816.59"/>
<text xml:space="preserve" text-anchor="middle" x="130.71" y="-800.34" font-family="Helvetica,sans-Serif" font-size="10.00" fill="white">Parsed JSON returned to the form</text>
<text xml:space="preserve" text-anchor="middle" x="130.71" y="-789.09" font-family="Helvetica,sans-Serif" font-size="10.00" fill="white">(fields + guessed + missing + confidence)</text>
</g>
<!-- s1&#45;&gt;s2 -->
<g id="edge2" class="edge">
<title>s1&#45;&gt;s2</title>
<path fill="none" stroke="#9e9e9e" d="M130.71,-849.34C130.71,-842.05 130.71,-833.4 130.71,-825.38"/>
<polygon fill="#9e9e9e" stroke="#9e9e9e" points="133.16,-825.53 130.71,-818.53 128.26,-825.53 133.16,-825.53"/>
</g>
<!-- s3 -->
<g id="node4" class="node">
<title>s3</title>
<path fill="#1f3864" stroke="#1f3864" d="M198.8,-747.59C198.8,-747.59 62.62,-747.59 62.62,-747.59 56.62,-747.59 50.63,-741.59 50.63,-735.59 50.63,-735.59 50.63,-723.59 50.63,-723.59 50.63,-717.59 56.63,-711.59 62.63,-711.59 62.63,-711.59 198.8,-711.59 198.8,-711.59 204.8,-711.59 210.8,-717.59 210.8,-723.59 210.8,-723.59 210.8,-735.59 210.8,-735.59 210.8,-741.59 204.8,-747.59 198.8,-747.59"/>
<text xml:space="preserve" text-anchor="middle" x="130.71" y="-725.71" font-family="Helvetica,sans-Serif" font-size="10.00" fill="white">User reviews / edits / confirms</text>
</g>
<!-- s2&#45;&gt;s3 -->
<g id="edge3" class="edge">
<title>s2&#45;&gt;s3</title>
<path fill="none" stroke="#9e9e9e" d="M130.71,-780.34C130.71,-773.05 130.71,-764.4 130.71,-756.38"/>
<polygon fill="#9e9e9e" stroke="#9e9e9e" points="133.16,-756.53 130.71,-749.53 128.26,-756.53 133.16,-756.53"/>
</g>
<!-- s4 -->
<g id="node5" class="node">
<title>s4</title>
<path fill="#1f3864" stroke="#1f3864" d="M197.3,-678.59C197.3,-678.59 64.12,-678.59 64.12,-678.59 58.12,-678.59 52.13,-672.59 52.13,-666.59 52.13,-666.59 52.13,-654.59 52.13,-654.59 52.13,-648.59 58.13,-642.59 64.13,-642.59 64.13,-642.59 197.3,-642.59 197.3,-642.59 203.3,-642.59 209.3,-648.59 209.3,-654.59 209.3,-654.59 209.3,-666.59 209.3,-666.59 209.3,-672.59 203.3,-678.59 197.3,-678.59"/>
<text xml:space="preserve" text-anchor="middle" x="130.71" y="-662.34" font-family="Helvetica,sans-Serif" font-size="10.00" fill="white">POST /api/estimate/readiness</text>
<text xml:space="preserve" text-anchor="middle" x="130.71" y="-651.09" font-family="Helvetica,sans-Serif" font-size="10.00" fill="white">(optional, scores input 0&#45;100)</text>
</g>
<!-- s3&#45;&gt;s4 -->
<g id="edge4" class="edge">
<title>s3&#45;&gt;s4</title>
<path fill="none" stroke="#9e9e9e" d="M130.71,-711.34C130.71,-704.05 130.71,-695.4 130.71,-687.38"/>
<polygon fill="#9e9e9e" stroke="#9e9e9e" points="133.16,-687.53 130.71,-680.53 128.26,-687.53 133.16,-687.53"/>
</g>
<!-- s5 -->
<g id="node6" class="node">
<title>s5</title>
<path fill="#1f3864" stroke="#1f3864" d="M184.55,-609.59C184.55,-609.59 76.88,-609.59 76.88,-609.59 70.88,-609.59 64.88,-603.59 64.88,-597.59 64.88,-597.59 64.88,-585.59 64.88,-585.59 64.88,-579.59 70.88,-573.59 76.88,-573.59 76.88,-573.59 184.55,-573.59 184.55,-573.59 190.55,-573.59 196.55,-579.59 196.55,-585.59 196.55,-585.59 196.55,-597.59 196.55,-597.59 196.55,-603.59 190.55,-609.59 184.55,-609.59"/>
<text xml:space="preserve" text-anchor="middle" x="130.71" y="-587.71" font-family="Helvetica,sans-Serif" font-size="10.00" fill="white">POST /api/predict (BFF)</text>
</g>
<!-- s4&#45;&gt;s5 -->
<g id="edge5" class="edge">
<title>s4&#45;&gt;s5</title>
<path fill="none" stroke="#9e9e9e" d="M130.71,-642.34C130.71,-635.05 130.71,-626.4 130.71,-618.38"/>
<polygon fill="#9e9e9e" stroke="#9e9e9e" points="133.16,-618.53 130.71,-611.53 128.26,-618.53 133.16,-618.53"/>
</g>
<!-- s6a -->
<g id="node7" class="node">
<title>s6a</title>
<path fill="#1f3864" stroke="#1f3864" d="M180.05,-540.59C180.05,-540.59 81.38,-540.59 81.38,-540.59 75.38,-540.59 69.38,-534.59 69.38,-528.59 69.38,-528.59 69.38,-516.59 69.38,-516.59 69.38,-510.59 75.38,-504.59 81.38,-504.59 81.38,-504.59 180.05,-504.59 180.05,-504.59 186.05,-504.59 192.05,-510.59 192.05,-516.59 192.05,-516.59 192.05,-528.59 192.05,-528.59 192.05,-534.59 186.05,-540.59 180.05,-540.59"/>
<text xml:space="preserve" text-anchor="middle" x="130.71" y="-518.71" font-family="Helvetica,sans-Serif" font-size="10.00" fill="white">Auth.js session check</text>
</g>
<!-- s5&#45;&gt;s6a -->
<g id="edge6" class="edge">
<title>s5&#45;&gt;s6a</title>
<path fill="none" stroke="#9e9e9e" d="M130.71,-573.34C130.71,-566.05 130.71,-557.4 130.71,-549.38"/>
<polygon fill="#9e9e9e" stroke="#9e9e9e" points="133.16,-549.53 130.71,-542.53 128.26,-549.53 133.16,-549.53"/>
</g>
<!-- s6b -->
<g id="node8" class="node">
<title>s6b</title>
<path fill="#1f3864" stroke="#1f3864" d="M249.42,-471.59C249.42,-471.59 12,-471.59 12,-471.59 6,-471.59 0,-465.59 0,-459.59 0,-459.59 0,-447.59 0,-447.59 0,-441.59 6,-435.59 12,-435.59 12,-435.59 249.42,-435.59 249.42,-435.59 255.42,-435.59 261.42,-441.59 261.42,-447.59 261.42,-447.59 261.42,-459.59 261.42,-459.59 261.42,-465.59 255.42,-471.59 249.42,-471.59"/>
<text xml:space="preserve" text-anchor="middle" x="130.71" y="-456.09" font-family="Helvetica,sans-Serif" font-size="10.00" fill="white">Idempotency lookup</text>
<text xml:space="preserve" text-anchor="middle" x="130.71" y="-444.84" font-family="Helvetica,sans-Serif" font-size="10.00" fill="white">Drizzle → Neon (UNIQUE user_id, idempotency_key)</text>
</g>
<!-- s6a&#45;&gt;s6b -->
<g id="edge7" class="edge">
<title>s6a&#45;&gt;s6b</title>
<path fill="none" stroke="#9e9e9e" d="M130.71,-504.34C130.71,-497.05 130.71,-488.4 130.71,-480.38"/>
<polygon fill="#9e9e9e" stroke="#9e9e9e" points="133.16,-480.53 130.71,-473.53 128.26,-480.53 133.16,-480.53"/>
</g>
<!-- s7 -->
<g id="node9" class="node">
<title>s7</title>
<path fill="#1f3864" stroke="#1f3864" d="M234.8,-393.84C234.8,-393.84 26.62,-393.84 26.62,-393.84 20.62,-393.84 14.63,-387.84 14.63,-381.84 14.63,-381.84 14.63,-369.84 14.63,-369.84 14.63,-363.84 20.63,-357.84 26.63,-357.84 26.63,-357.84 234.8,-357.84 234.8,-357.84 240.8,-357.84 246.8,-363.84 246.8,-369.84 246.8,-369.84 246.8,-381.84 246.8,-381.84 246.8,-387.84 240.8,-393.84 234.8,-393.84"/>
<text xml:space="preserve" text-anchor="middle" x="130.71" y="-377.59" font-family="Helvetica,sans-Serif" font-size="10.00" fill="white">Mint Google ID token</text>
<text xml:space="preserve" text-anchor="middle" x="130.71" y="-366.34" font-family="Helvetica,sans-Serif" font-size="10.00" fill="white">(google&#45;auth&#45;library, audience = Cloud Run API)</text>
</g>
<!-- s6b&#45;&gt;s7 -->
<g id="edge8" class="edge">
<title>s6b&#45;&gt;s7</title>
<path fill="none" stroke="#9e9e9e" d="M130.71,-435.4C130.71,-425.69 130.71,-413.36 130.71,-402.52"/>
<polygon fill="#9e9e9e" stroke="#9e9e9e" points="133.16,-402.74 130.71,-395.74 128.26,-402.74 133.16,-402.74"/>
<text xml:space="preserve" text-anchor="middle" x="153.21" y="-411.04" font-family="Helvetica,sans-Serif" font-size="9.00" fill="#9e9e9e">not cached</text>
</g>
<!-- s12 -->
<g id="node14" class="node">
<title>s12</title>
<path fill="#1f3864" stroke="#1f3864" d="M226.54,-36C226.54,-36 34.88,-36 34.88,-36 28.88,-36 22.88,-30 22.88,-24 22.88,-24 22.88,-12 22.88,-12 22.88,-6 28.88,0 34.88,0 34.88,0 226.54,0 226.54,0 232.54,0 238.54,-6 238.54,-12 238.54,-12 238.54,-24 238.54,-24 238.54,-30 232.54,-36 226.54,-36"/>
<text xml:space="preserve" text-anchor="middle" x="130.71" y="-14.12" font-family="Helvetica,sans-Serif" font-size="10.00" fill="white">Browser renders price + SHAP top features</text>
</g>
<!-- s6b&#45;&gt;s12 -->
<g id="edge9" class="edge">
<title>s6b&#45;&gt;s12</title>
<path fill="none" stroke="#9e9e9e" stroke-dasharray="5,2" d="M202.97,-435.21C224.19,-426.41 245.07,-413.3 257.71,-393.84 336.35,-272.75 343.6,-187.91 261.71,-69 253.09,-56.48 240.88,-47.1 227.35,-40.06"/>
<polygon fill="#9e9e9e" stroke="#9e9e9e" points="228.44,-37.87 221.07,-37.04 226.32,-42.28 228.44,-37.87"/>
<text xml:space="preserve" text-anchor="middle" x="354.48" y="-234.91" font-family="Helvetica,sans-Serif" font-size="9.00" fill="#9e9e9e">cached → replay</text>
</g>
<!-- s8 -->
<g id="node10" class="node">
<title>s8</title>
<path fill="#1f3864" stroke="#1f3864" d="M188.67,-324.84C188.67,-324.84 72.75,-324.84 72.75,-324.84 66.75,-324.84 60.75,-318.84 60.75,-312.84 60.75,-312.84 60.75,-300.84 60.75,-300.84 60.75,-294.84 66.75,-288.84 72.75,-288.84 72.75,-288.84 188.67,-288.84 188.67,-288.84 194.67,-288.84 200.67,-294.84 200.67,-300.84 200.67,-300.84 200.67,-312.84 200.67,-312.84 200.67,-318.84 194.67,-324.84 188.67,-324.84"/>
<text xml:space="preserve" text-anchor="middle" x="130.71" y="-308.59" font-family="Helvetica,sans-Serif" font-size="10.00" fill="white">POST /v1/predict</text>
<text xml:space="preserve" text-anchor="middle" x="130.71" y="-297.34" font-family="Helvetica,sans-Serif" font-size="10.00" fill="white">FastAPI (Bearer ID token)</text>
</g>
<!-- s7&#45;&gt;s8 -->
<g id="edge10" class="edge">
<title>s7&#45;&gt;s8</title>
<path fill="none" stroke="#9e9e9e" d="M130.71,-357.59C130.71,-350.3 130.71,-341.65 130.71,-333.63"/>
<polygon fill="#9e9e9e" stroke="#9e9e9e" points="133.16,-333.78 130.71,-326.78 128.26,-333.78 133.16,-333.78"/>
</g>
<!-- s9 -->
<g id="node11" class="node">
<title>s9</title>
<path fill="#1f3864" stroke="#1f3864" d="M216.05,-255.84C216.05,-255.84 45.38,-255.84 45.38,-255.84 39.37,-255.84 33.38,-249.84 33.38,-243.84 33.38,-243.84 33.38,-231.84 33.38,-231.84 33.38,-225.84 39.38,-219.84 45.38,-219.84 45.38,-219.84 216.05,-219.84 216.05,-219.84 222.05,-219.84 228.05,-225.84 228.05,-231.84 228.05,-231.84 228.05,-243.84 228.05,-243.84 228.05,-249.84 222.05,-255.84 216.05,-255.84"/>
<text xml:space="preserve" text-anchor="middle" x="130.71" y="-239.59" font-family="Helvetica,sans-Serif" font-size="10.00" fill="white">Pipeline.predict + SHAP TreeExplainer</text>
<text xml:space="preserve" text-anchor="middle" x="130.71" y="-228.34" font-family="Helvetica,sans-Serif" font-size="10.00" fill="white">(loaded once at lifespan)</text>
</g>
<!-- s8&#45;&gt;s9 -->
<g id="edge11" class="edge">
<title>s8&#45;&gt;s9</title>
<path fill="none" stroke="#9e9e9e" d="M130.71,-288.59C130.71,-281.3 130.71,-272.65 130.71,-264.63"/>
<polygon fill="#9e9e9e" stroke="#9e9e9e" points="133.16,-264.78 130.71,-257.78 128.26,-264.78 133.16,-264.78"/>
</g>
<!-- s10 -->
<g id="node12" class="node">
<title>s10</title>
<path fill="#1f3864" stroke="#1f3864" d="M227.67,-186.84C227.67,-186.84 33.75,-186.84 33.75,-186.84 27.75,-186.84 21.75,-180.84 21.75,-174.84 21.75,-174.84 21.75,-162.84 21.75,-162.84 21.75,-156.84 27.75,-150.84 33.75,-150.84 33.75,-150.84 227.67,-150.84 227.67,-150.84 233.67,-150.84 239.67,-156.84 239.67,-162.84 239.67,-162.84 239.67,-174.84 239.67,-174.84 239.67,-180.84 233.67,-186.84 227.67,-186.84"/>
<text xml:space="preserve" text-anchor="middle" x="130.71" y="-164.96" font-family="Helvetica,sans-Serif" font-size="10.00" fill="white">Response: { prediction, explanation, model }</text>
</g>
<!-- s9&#45;&gt;s10 -->
<g id="edge12" class="edge">
<title>s9&#45;&gt;s10</title>
<path fill="none" stroke="#9e9e9e" d="M130.71,-219.59C130.71,-212.3 130.71,-203.65 130.71,-195.63"/>
<polygon fill="#9e9e9e" stroke="#9e9e9e" points="133.16,-195.78 130.71,-188.78 128.26,-195.78 133.16,-195.78"/>
</g>
<!-- s11 -->
<g id="node13" class="node">
<title>s11</title>
<path fill="#1f3864" stroke="#1f3864" d="M250.92,-113.4C250.92,-115.85 197.04,-117.84 130.71,-117.84 64.38,-117.84 10.5,-115.85 10.5,-113.4 10.5,-113.4 10.5,-73.44 10.5,-73.44 10.5,-70.99 64.38,-69 130.71,-69 197.04,-69 250.92,-70.99 250.92,-73.44 250.92,-73.44 250.92,-113.4 250.92,-113.4"/>
<path fill="none" stroke="#1f3864" d="M250.92,-113.4C250.92,-110.95 197.04,-108.96 130.71,-108.96 64.38,-108.96 10.5,-110.95 10.5,-113.4"/>
<text xml:space="preserve" text-anchor="middle" x="130.71" y="-95.92" font-family="Helvetica,sans-Serif" font-size="10.00" fill="white">Persist row</text>
<text xml:space="preserve" text-anchor="middle" x="130.71" y="-84.67" font-family="Helvetica,sans-Serif" font-size="10.00" fill="white">Drizzle → Neon (ON CONFLICT DO NOTHING)</text>
</g>
<!-- s10&#45;&gt;s11 -->
<g id="edge13" class="edge">
<title>s10&#45;&gt;s11</title>
<path fill="none" stroke="#9e9e9e" d="M130.71,-150.44C130.71,-143.26 130.71,-134.71 130.71,-126.48"/>
<polygon fill="#9e9e9e" stroke="#9e9e9e" points="133.16,-126.6 130.71,-119.6 128.26,-126.6 133.16,-126.6"/>
</g>
<!-- s11&#45;&gt;s12 -->
<g id="edge14" class="edge">
<title>s11&#45;&gt;s12</title>
<path fill="none" stroke="#9e9e9e" d="M130.71,-68.79C130.71,-61.11 130.71,-52.56 130.71,-44.74"/>
<polygon fill="#9e9e9e" stroke="#9e9e9e" points="133.16,-44.82 130.71,-37.82 128.26,-44.82 133.16,-44.82"/>
</g>
</g>
</svg>
