<?xml version="1.0" encoding="UTF-8" standalone="no"?>
<!DOCTYPE svg PUBLIC "-//W3C//DTD SVG 1.1//EN"
 "http://www.w3.org/Graphics/SVG/1.1/DTD/svg11.dtd">
<!-- Generated by graphviz version 14.1.2 (20260124.0452)
 -->
<!-- Title: PredictionsER Pages: 1 -->
<svg width="377pt" height="451pt"
 viewBox="0.00 0.00 377.00 451.00" xmlns="http://www.w3.org/2000/svg" xmlns:xlink="http://www.w3.org/1999/xlink">
<g id="graph0" class="graph" transform="scale(1 1) rotate(0) translate(4 447)">
<title>PredictionsER</title>
<!-- predictions -->
<g id="node1" class="node">
<title>predictions</title>
<polygon fill="#1f3864" stroke="none" points="8,-4 8,-439 360.75,-439 360.75,-4 8,-4"/>
<polygon fill="#0d1f3a" stroke="none" points="8,-410 8,-439 360.75,-439 360.75,-410 8,-410"/>
<polygon fill="none" stroke="#0d1f3a" points="8,-410 8,-439 360.75,-439 360.75,-410 8,-410"/>
<text xml:space="preserve" text-anchor="start" x="125.88" y="-419.7" font-family="Helvetica,sans-Serif" font-size="14.00"> &#160;&#160;&#160;&#160;&#160;&#160;&#160;</text>
<text xml:space="preserve" text-anchor="start" x="155.88" y="-419.7" font-family="Helvetica,sans-Serif" font-weight="bold" font-size="12.00" fill="white">predictions</text>
<text xml:space="preserve" text-anchor="start" x="220.38" y="-419.7" font-family="Helvetica,sans-Serif" font-size="14.00"> &#160;&#160;&#160;&#160;&#160;</text>
<polygon fill="none" stroke="#0d1f3a" points="8,-381 8,-410 183.25,-410 183.25,-381 8,-381"/>
<text xml:space="preserve" text-anchor="start" x="15" y="-390.7" font-family="Helvetica,sans-Serif" font-weight="bold" font-size="14.00" fill="white">id</text>
<polygon fill="none" stroke="#0d1f3a" points="183.25,-381 183.25,-410 360.75,-410 360.75,-381 183.25,-381"/>
<text xml:space="preserve" text-anchor="start" x="190.25" y="-389.7" font-family="Helvetica,sans-Serif" font-size="14.00" fill="white">uuid · pk</text>
<polygon fill="none" stroke="#0d1f3a" points="8,-352 8,-381 183.25,-381 183.25,-352 8,-352"/>
<text xml:space="preserve" text-anchor="start" x="15" y="-360.7" font-family="Helvetica,sans-Serif" font-size="14.00" fill="white">user_id</text>
<polygon fill="none" stroke="#0d1f3a" points="183.25,-352 183.25,-381 360.75,-381 360.75,-352 183.25,-352"/>
<text xml:space="preserve" text-anchor="start" x="190.25" y="-360.7" font-family="Helvetica,sans-Serif" font-size="14.00" fill="white">text · not null</text>
<polygon fill="none" stroke="#0d1f3a" points="8,-323 8,-352 183.25,-352 183.25,-323 8,-323"/>
<text xml:space="preserve" text-anchor="start" x="15" y="-331.7" font-family="Helvetica,sans-Serif" font-size="14.00" fill="white">input_jsonb</text>
<polygon fill="none" stroke="#0d1f3a" points="183.25,-323 183.25,-352 360.75,-352 360.75,-323 183.25,-323"/>
<text xml:space="preserve" text-anchor="start" x="190.25" y="-331.7" font-family="Helvetica,sans-Serif" font-size="14.00" fill="white">jsonb · not null</text>
<polygon fill="none" stroke="#0d1f3a" points="8,-294 8,-323 183.25,-323 183.25,-294 8,-294"/>
<text xml:space="preserve" text-anchor="start" x="15" y="-302.7" font-family="Helvetica,sans-Serif" font-size="14.00" fill="white">input_source</text>
<polygon fill="none" stroke="#0d1f3a" points="183.25,-294 183.25,-323 360.75,-323 360.75,-294 183.25,-294"/>
<text xml:space="preserve" text-anchor="start" x="190.25" y="-302.7" font-family="Helvetica,sans-Serif" font-size="14.00" fill="white">text · manual | nlp | mixed</text>
<polygon fill="none" stroke="#0d1f3a" points="8,-265 8,-294 183.25,-294 183.25,-265 8,-265"/>
<text xml:space="preserve" text-anchor="start" x="15" y="-273.7" font-family="Helvetica,sans-Serif" font-size="14.00" fill="white">parse_metadata_jsonb</text>
<polygon fill="none" stroke="#0d1f3a" points="183.25,-265 183.25,-294 360.75,-294 360.75,-265 183.25,-265"/>
<text xml:space="preserve" text-anchor="start" x="190.25" y="-273.7" font-family="Helvetica,sans-Serif" font-size="14.00" fill="white">jsonb · nullable</text>
<polygon fill="none" stroke="#0d1f3a" points="8,-236 8,-265 183.25,-265 183.25,-236 8,-236"/>
<text xml:space="preserve" text-anchor="start" x="15" y="-244.7" font-family="Helvetica,sans-Serif" font-size="14.00" fill="white">predicted_price_usd_cents</text>
<polygon fill="none" stroke="#0d1f3a" points="183.25,-236 183.25,-265 360.75,-265 360.75,-236 183.25,-236"/>
<text xml:space="preserve" text-anchor="start" x="190.25" y="-244.7" font-family="Helvetica,sans-Serif" font-size="14.00" fill="white">integer · not null</text>
<polygon fill="none" stroke="#0d1f3a" points="8,-207 8,-236 183.25,-236 183.25,-207 8,-207"/>
<text xml:space="preserve" text-anchor="start" x="15" y="-215.7" font-family="Helvetica,sans-Serif" font-size="14.00" fill="white">model_version</text>
<polygon fill="none" stroke="#0d1f3a" points="183.25,-207 183.25,-236 360.75,-236 360.75,-207 183.25,-207"/>
<text xml:space="preserve" text-anchor="start" x="190.25" y="-215.7" font-family="Helvetica,sans-Serif" font-size="14.00" fill="white">text · not null</text>
<polygon fill="none" stroke="#0d1f3a" points="8,-178 8,-207 183.25,-207 183.25,-178 8,-178"/>
<text xml:space="preserve" text-anchor="start" x="15" y="-186.7" font-family="Helvetica,sans-Serif" font-size="14.00" fill="white">api_request_id</text>
<polygon fill="none" stroke="#0d1f3a" points="183.25,-178 183.25,-207 360.75,-207 360.75,-178 183.25,-178"/>
<text xml:space="preserve" text-anchor="start" x="190.25" y="-186.7" font-family="Helvetica,sans-Serif" font-size="14.00" fill="white">text · not null</text>
<polygon fill="none" stroke="#0d1f3a" points="8,-149 8,-178 183.25,-178 183.25,-149 8,-149"/>
<text xml:space="preserve" text-anchor="start" x="15" y="-157.7" font-family="Helvetica,sans-Serif" font-size="14.00" fill="white">result_jsonb</text>
<polygon fill="none" stroke="#0d1f3a" points="183.25,-149 183.25,-178 360.75,-178 360.75,-149 183.25,-149"/>
<text xml:space="preserve" text-anchor="start" x="190.25" y="-157.7" font-family="Helvetica,sans-Serif" font-size="14.00" fill="white">jsonb · not null</text>
<polygon fill="none" stroke="#0d1f3a" points="8,-120 8,-149 183.25,-149 183.25,-120 8,-120"/>
<text xml:space="preserve" text-anchor="start" x="15" y="-128.7" font-family="Helvetica,sans-Serif" font-size="14.00" fill="white">shap_jsonb</text>
<polygon fill="none" stroke="#0d1f3a" points="183.25,-120 183.25,-149 360.75,-149 360.75,-120 183.25,-120"/>
<text xml:space="preserve" text-anchor="start" x="190.25" y="-128.7" font-family="Helvetica,sans-Serif" font-size="14.00" fill="white">jsonb · not null</text>
<polygon fill="none" stroke="#0d1f3a" points="8,-91 8,-120 183.25,-120 183.25,-91 8,-91"/>
<text xml:space="preserve" text-anchor="start" x="15" y="-99.7" font-family="Helvetica,sans-Serif" font-size="14.00" fill="white">idempotency_key</text>
<polygon fill="none" stroke="#0d1f3a" points="183.25,-91 183.25,-120 360.75,-120 360.75,-91 183.25,-91"/>
<text xml:space="preserve" text-anchor="start" x="190.25" y="-99.7" font-family="Helvetica,sans-Serif" font-size="14.00" fill="white">text · not null</text>
<polygon fill="none" stroke="#0d1f3a" points="8,-62 8,-91 183.25,-91 183.25,-62 8,-62"/>
<text xml:space="preserve" text-anchor="start" x="15" y="-70.7" font-family="Helvetica,sans-Serif" font-size="14.00" fill="white">created_at</text>
<polygon fill="none" stroke="#0d1f3a" points="183.25,-62 183.25,-91 360.75,-91 360.75,-62 183.25,-62"/>
<text xml:space="preserve" text-anchor="start" x="190.25" y="-70.7" font-family="Helvetica,sans-Serif" font-size="14.00" fill="white">timestamptz · default now()</text>
<polygon fill="#0d1f3a" stroke="none" points="8,-33 8,-62 360.75,-62 360.75,-33 8,-33"/>
<polygon fill="none" stroke="#0d1f3a" points="8,-33 8,-62 360.75,-62 360.75,-33 8,-33"/>
<text xml:space="preserve" text-anchor="start" x="15" y="-42.7" font-family="Helvetica,sans-Serif" font-size="14.00"> &#160;&#160;&#160;&#160;&#160;&#160;&#160;</text>
<text xml:space="preserve" text-anchor="start" x="45" y="-42.7" font-family="Helvetica,sans-Serif" font-weight="bold" font-size="14.00" fill="white">index</text>
<text xml:space="preserve" text-anchor="start" x="80.25" y="-42.7" font-family="Helvetica,sans-Serif" font-size="14.00" fill="white"> (user_id, created_at desc)</text>
<text xml:space="preserve" text-anchor="start" x="240.75" y="-42.7" font-family="Helvetica,sans-Serif" font-size="14.00"> &#160;&#160;&#160;&#160;&#160;</text>
<polygon fill="#0d1f3a" stroke="none" points="8,-4 8,-33 360.75,-33 360.75,-4 8,-4"/>
<polygon fill="none" stroke="#0d1f3a" points="8,-4 8,-33 360.75,-33 360.75,-4 8,-4"/>
<text xml:space="preserve" text-anchor="start" x="15" y="-13.7" font-family="Helvetica,sans-Serif" font-size="14.00"> &#160;&#160;&#160;&#160;&#160;&#160;&#160;</text>
<text xml:space="preserve" text-anchor="start" x="45" y="-13.7" font-family="Helvetica,sans-Serif" font-weight="bold" font-size="14.00" fill="white">unique</text>
<text xml:space="preserve" text-anchor="start" x="89.25" y="-13.7" font-family="Helvetica,sans-Serif" font-size="14.00" fill="white"> (user_id, idempotency_key)</text>
<text xml:space="preserve" text-anchor="start" x="259.5" y="-13.7" font-family="Helvetica,sans-Serif" font-size="14.00"> &#160;&#160;&#160;&#160;&#160;</text>
</g>
</g>
</svg>
